<svg version="1.1" xmlns="http://www.w3.org/2000/svg" xmlns:xlink="http://www.w3.org/1999/xlink" id="svg-editor-canvas" class="canvas" width="100%" height="100%">
  <g>
    <path fill="#17151F" d="M73.224,37.384c-3.847-2.633-8.72-3.02-13.238-2.757c-10.322,0.639-20.635,3.692-29.233,9.527   c4.614-2.005,9.404-3.573,14.254-4.911c4.233-1.156,8.697-1.548,13.04-0.865c3.114,0.521,6.316,1.726,8.369,4.228   c1.822,2.19,2.258,5.236,1.781,7.981c-0.114,0.661-0.255,1.318-0.427,1.962c3.484-0.024,6.725-0.286,9.905-0.406   c0.366-1.701,0.566-3.436,0.507-5.197C78.083,43.229,76.343,39.49,73.224,37.384z" data-part-id="logo__item--logo_0__0"/>
    <g>
      <path fill="#61A9A7" d="M13.322,21.513c2.716,0,11.546,0.338,15.846,0.338c8.603,0,14.83-0.338,21.507-0.338    c13.92,0,21.503,7.131,21.503,17.315c0,8.829-5.773,14.15-13.24,17.091c-0.116,0.11-0.226,0.679-0.116,0.906    c2.152,4.188,12.45,19.465,17.998,24.786c3.963,3.848,4.641,4.188,10.414,4.868c0.226,0.342-0.342,3.735-0.794,4.073    c-6.679,0.567-18.224,0-22.864-2.038c-2.716-1.357-4.979-3.735-5.659-4.751c-4.525-5.547-9.845-15.165-13.466-21.165    c-0.794-1.248-1.7-1.928-3.284-2.037h-2.715c-0.226,0-0.454,0.451-0.454,0.678c0,7.017,0.112,14.035,0.228,18.903    c0.11,3.279,0.79,4.637,3.167,5.316c2.036,0.568,3.058,0.678,5.999,1.136c0.564,0.111,0.452,3.62-0.226,3.847    c-2.49,0-7.924-0.341-16.865-0.341c-9.395,0-14.488,0.341-16.862,0.341c-0.458-0.452-0.683-3.395-0.116-3.847    c2.036-0.231,3.735-0.567,5.205-0.91c2.378-0.563,3.171-2.036,3.284-5.542c0.226-3.51,0.341-18.792,0.341-25.807    c0-10.978,0-17.883-0.226-22.865c-0.116-3.058-1.132-4.643-3.174-5.095c-1.357-0.336-3.621-0.79-5.773-1.016    C12.529,24.683,12.755,21.739,13.322,21.513z M39.015,26.828c-0.454,0.342-0.79,1.248-0.79,1.7    c-0.228,2.489-0.228,10.869-0.228,25.808c0,0.452,0.338,0.904,0.68,0.904c4.867,0.227,10.183-0.227,12.224-1.357    c2.942-1.473,5.09-4.414,5.09-11.546c0-9.394-5.205-15.961-13.918-15.961C41.276,26.376,39.809,26.492,39.015,26.828z" data-part-id="logo__item--logo_0__1"/>
    </g>
    <g>
      <g>
        <path fill="#17151F" d="M60.869,64.282c-4.995,5.039-11.051,8.911-17.386,12.042c1.8,0.437,3.594,0.88,5.394,1.318     c-0.936,2.175-1.885,4.339-2.812,6.512c4.401-1.992,8.585-4.448,12.56-7.184c5.797-4.058,11.179-8.917,14.949-14.957     c1.889-3.058,3.434-6.433,4.196-9.957c-3.182,0.12-6.422,0.381-9.906,0.407C66.678,56.941,64.117,61.005,60.869,64.282z" data-part-id="logo__item--logo_0__2"/>
      </g>
      <g>
        <g>
          <path fill="#4C6767" d="M17.783,80.304c-2.647-1.105-5.656-2.632-6.465-5.643c-1.096-4.288,0.657-8.614,2.409-12.477      c-2.576,3.549-4.468,7.79-4.488,12.231c-0.04,4.547,2.804,8.871,6.832,10.888c3.085,1.545,6.599,1.963,10.006,1.954      c2.832-0.041,5.645-0.378,8.422-0.914c-0.684-1.751-1.008-3.588-1.144-5.337C28.183,82.146,22.762,82.209,17.783,80.304z" data-part-id="logo__item--logo_0__3"/>
          <path fill="#4C6767" d="M38.288,77.334c0.348,0.631,0.689,1.256,1.032,1.883c-1.918,0.738-3.922,1.338-5.964,1.79      c0.135,1.749,0.46,3.586,1.144,5.337c2.478-0.478,4.926-1.106,7.33-1.868c0.407,0.697,0.819,1.396,1.226,2.092      c0.959-2.279,1.847-4.586,2.765-6.881C43.314,78.9,40.799,78.118,38.288,77.334z" data-part-id="logo__item--logo_0__4"/>
        </g>
      </g>
    </g>
  </g>
</svg>